<?xml version="1.0" encoding="utf-8"?>
<!-- Generator: Adobe Illustrator 27.8.0, SVG Export Plug-In . SVG Version: 6.00 Build 0)  -->
<svg version="1.1" id="ARTWORK" xmlns="http://www.w3.org/2000/svg" xmlns:xlink="http://www.w3.org/1999/xlink" x="0px" y="0px"
	 viewBox="0 0 486.9 662" style="enable-background:new 0 0 486.9 662;" xml:space="preserve">
<style type="text/css">
	.st0{fill:#FFFFFF;}
</style>
<g>
	<g>
		<path class="st0" d="M243.5,628.7l-3.3-3.1c-2.9-2.7-7.3-6.6-11.8-9.6c-9.9-6.5-21.2-10.3-21.3-10.3c-10.9-3.6-23.3-7-36.4-10.7
			l-0.3-0.1c-31.8-8.8-67.9-18.9-96.1-34.7c-33.6-18.9-49.9-42.7-49.9-72.6V53.7l3.3-1.1c0.8-0.3,86.1-28.3,215.9-28.3
			c67.8,0,122.8,7.7,157,14.1c37.2,7,58,13.9,58.9,14.2l3.3,1.1v433.9c0,30-16.3,53.7-49.9,72.6c-28.2,15.9-64.3,25.9-96.1,34.7
			l-0.3,0.1c-13.1,3.6-25.5,7.1-36.5,10.7c-0.4,0.1-11.6,4-21.3,10.3c-3.6,2.3-7.6,5.7-11.8,9.6L243.5,628.7z M33.9,60.8v426.8
			c0,59.4,77,80.8,138.9,98l0.3,0.1c13.2,3.7,25.7,7.2,36.9,10.8c0.1,0,12.6,4.2,23.6,11.5c3.5,2.3,7,5.1,9.8,7.6
			c3.4-3,6.7-5.5,9.8-7.6c10.6-6.9,22.3-11,23.6-11.4c11.2-3.7,23.7-7.2,36.9-10.8l0.3-0.1c61.9-17.2,138.9-38.6,138.9-98V60.8
			c-16.7-5-95.6-26.8-209.5-26.8C129.5,33.9,50.7,55.7,33.9,60.8z"/>
	</g>
	<polygon class="st0" points="90.1,104.1 102.9,97.2 115.7,104.1 113.3,89.5 123.7,79.3 109.3,77.1 102.9,63.9 96.5,77.1 82.1,79.3 
		92.5,89.5 	"/>
	<g>
		<path class="st0" d="M90,532.3c-4.1-2.3-7.4-4.3-7.4-4.3c1,0,2.5-0.1,3.5-1.7c0.8-1.4,1.4-4,2.2-7.1c0.2-0.7,0.4-1.5,0.6-2.2
			c-3.6-2.2-7.1-4.5-10.7-6.9c-0.6,0.5-1.2,0.9-1.8,1.4c-2.5,2-4.7,3.6-5.6,4.9c-1.1,1.6-0.6,3-0.1,3.9c0,0-2.4-1.8-6-4.3
			c-3.7-2.6-5.8-4.1-5.8-4.1c3.1,0,5.9-1.9,12.2-6.3c6.2-4.4,12.3-9,18.3-13.6c0.5-0.4,1-0.8,1.4-1.4c0.4-0.6,0.3-1,0.3-1.1
			c4.7,3.2,9.4,6.2,14.2,9.1c0,0-0.5,0.1-0.9,0.8c-0.3,0.6-0.6,1.2-0.7,1.8c-1.9,7.3-3.6,14.6-5.2,22c-1.6,7.5-2.1,10.8-0.9,13.5
			C97.4,536.6,94.4,534.9,90,532.3z M94,499c0.7-2.2,1.1-3.4,1.3-3.7c-0.2,0.2-0.9,1-2.8,2.7c-3.3,2.9-6.6,5.7-10,8.6
			c2.6,1.8,5.3,3.5,7.9,5.1C91.4,507.5,92.7,503.2,94,499z"/>
		<path class="st0" d="M110.1,543.4c-7.4-3.6-10.2-7-10.2-6.9c0,0,0.7-1,2-3.5c1.5-2.8,2.3-4.5,2.3-4.5c0.7,3.3,2.2,7,7.7,9.7
			c3.8,1.8,7.2,2.5,8.6-0.5c1.1-2.4-0.3-4-2.4-6.5c-1.2-1.4-2.3-2.9-3.4-4.3c-3.2-4.1-5.2-8.3-2.7-13c3.3-6.2,9.4-6.8,17.8-2.8
			c6,2.8,8.7,5.5,8.7,5.5c0,0-0.6,1.1-1.7,3.8c-1.2,2.8-1.7,4.4-1.7,4.4c-1-3.7-2.8-6.7-6.8-8.6c-3.4-1.6-5.9-1.8-7.1,0.6
			c-1.1,2.2,0.3,3.8,2.6,6.6c1,1.2,2,2.4,3,3.6c3.7,4.3,5.8,8.1,3.7,13.4C126.8,548.3,118.9,547.6,110.1,543.4z"/>
		<path class="st0" d="M170.1,534.5c0-0.1-0.2-0.7-1.5-1.9c-1.1-1.1-3-2.2-5.6-3c-1-0.3-1.9-0.6-2.9-0.9c-1.4,4.3-2.8,8.6-4.1,13
			c-4.6,14.4-4.4,14.7-3.8,17.1c0.1,0.3,0.2,0.7,0.3,1c0,0-2.1-0.7-7.2-2.5c-5.1-1.7-7.3-2.5-7.3-2.5c0.3-0.2,0.6-0.4,0.8-0.6
			c1.9-1.4,2.3-1.7,7.5-16.3c1.5-4.1,2.9-8.2,4.4-12.3c-1-0.3-1.9-0.7-2.9-1c-2.5-0.9-4.7-1.2-6.3-1c-1.7,0.2-2.3,0.5-2.4,0.6
			c0,0,0.7-1.4,1.7-3.9c1-2.4,1.3-3.4,1.3-3.4c9.8,4,19.8,7.3,29.9,10.1c0,0-0.4,1.1-1,3.5C170.4,533.1,170.1,534.4,170.1,534.5z"/>
		<path class="st0" d="M184.4,568.5c-13.8-2.8-18.9-11.4-15.8-22.7c2.7-9.7,10-17.4,23-14.8c12,2.3,17.3,9.6,15.9,21.3
			C206.4,562.2,199.6,571.3,184.4,568.5z M190.8,536.3c-5.5-1.1-9,2.4-11.1,11.8c-2.1,9.3-0.3,13.9,5.7,15.1
			c6.1,1.2,9.6-2.6,11.2-12C198.1,541.7,196.2,537.4,190.8,536.3z"/>
		<path class="st0" d="M250,537.3c-1,1.8-1.3,2.4-1.1,17.9c0.1,6.1,0.2,12.2,0.3,18.3c0,0-1.7-0.1-5.6-0.1c-4.2,0-7.4,0-7.4,0
			c-4.6-8.4-8.7-16.9-12.5-25.4c-0.8-1.9-1.3-3.9-1.3-4.1c-0.3,3.5-0.5,7-0.8,10.5c-1.2,15.1-0.9,15.3,0.2,17.5
			c0.2,0.3,0.3,0.6,0.5,0.9c0,0-1.9-0.2-6-0.6c-4.4-0.4-6.1-0.5-6.1-0.5c0.2-0.3,0.4-0.5,0.7-0.8c1.3-1.7,1.8-2.2,3.4-17.7
			c1.5-15,1.3-15.3,0.4-17.4c-0.1-0.3-0.3-0.6-0.4-0.9c0,0,2,0.4,7,0.8c4.2,0.3,6.3,0.3,6.3,0.3c3.7,8.5,7.8,16.9,12.2,25.2
			c1.1,2,1.5,3.7,1.6,4c0-3.5,0.1-7,0.1-10.5c0.1-15.1-0.1-15.3-1.2-17.4c-0.2-0.3-0.3-0.6-0.5-0.9c0,0,1.6,0.1,5.3,0.1
			c3.8,0,5.4-0.2,5.4-0.2C250.4,536.7,250.2,537,250,537.3z"/>
		<path class="st0" d="M299.9,543.2c-1,8.6-2.2,17.3-3.7,25.9c0,0-2.7,0.4-7.5,1.1c-4.6,0.7-7.7,1.1-7.7,1.1
			c-3.8-7.9-7.4-15.8-10.8-23.8c-2.9-7-4.2-10.1-6.4-11.8c0,0,2,0,7.3-0.5c5.5-0.6,7.6-1,7.6-1c-0.6,0.6-1.6,1.6-1.3,3.5
			c0.2,1.8,1.5,4.7,3.1,8.3c2.5,5.6,5.1,11.3,7.7,16.9c0.6,1.3,1.1,2.8,1.2,3c0-0.2,0.1-1.7,0.3-3.2c0.9-6.1,1.7-12.3,2.5-18.4
			c0.4-4,0.8-7.1,0.4-8.9c-0.3-1.9-1.5-2.6-2.3-2.9c0,0,2.1-0.2,6.6-1.1c4.2-0.8,5.9-1.4,5.9-1.4
			C301.1,532.3,300.7,535.6,299.9,543.2z"/>
		<path class="st0" d="M320,564c-5.2,1.3-7.4,1.9-7.4,1.9c0.1-0.3,0.2-0.7,0.4-1c0.8-2.2,1-2.6-2.6-17.8
			c-3.5-14.7-3.7-14.9-5.3-16.6c-0.2-0.2-0.5-0.5-0.7-0.7c0,0,1.9-0.3,6.5-1.5c4.9-1.3,6.5-1.9,6.5-1.8c-0.1,0.3-0.2,0.7-0.2,1
			c-0.5,2.2-0.7,2.6,3.4,17.6c4,14.6,4.3,14.7,6.1,16.4c0.3,0.2,0.5,0.5,0.8,0.7C327.4,562.1,325.2,562.6,320,564z"/>
		<path class="st0" d="M358.7,549.2c0.2,0.6,0.4,1.3,0.6,1.9c-7.1,2.9-14.4,5.5-21.6,7.8c-3.2,1-4.6,1.5-4.6,1.5
			c0.1-0.3,0.2-0.7,0.3-1c0.6-2.2,0.8-2.7-3.8-17.6c-4.5-14.4-4.8-14.6-6.5-16.2c-0.2-0.2-0.5-0.5-0.7-0.7c0,0,1.8-0.4,6.7-2
			c4.8-1.6,6.3-2.3,6.3-2.3c-0.1,0.4-0.1,0.7-0.2,1.1c-0.5,2.3-0.4,3.3,3.5,14.5c1.8,5,3.5,10.1,5.3,15.1c1.3-0.5,2.6-0.9,3.9-1.4
			c7.2-2.7,7.6-4.5,8.7-8C356.5,541.9,357,544,358.7,549.2z"/>
		<path class="st0" d="M388.4,535.3c0.3,0.6,0.5,1.2,0.8,1.8c-6.9,3.7-13.8,7.1-20.9,10.2c-3.1,1.4-4.5,2-4.5,2
			c0.1-0.3,0.1-0.7,0.2-1c0.4-2.3,0.5-2.8-5.6-17.1c-6-13.9-6.3-14-8.2-15.4c-0.3-0.2-0.5-0.4-0.8-0.6c0,0,1.8-0.6,6.5-2.7
			c4.6-2.1,6.1-3,6.1-3c0,0.4-0.1,0.7-0.1,1.1c-0.3,2.3-0.1,3.4,5,14c2.3,4.8,4.6,9.7,6.9,14.5c1.3-0.6,2.5-1.2,3.8-1.8
			c7-3.5,7.2-5.4,7.9-8.9C385.5,528.3,386.2,530.3,388.4,535.3z"/>
		<path class="st0" d="M421.8,516.9c-3.9,2.8-7.1,5-7.1,5c0.4-0.9,1-2.3-0.1-3.9c-0.9-1.3-3-3-5.5-5c-0.6-0.5-1.2-1-1.8-1.4
			c-3.5,2.3-7.1,4.6-10.7,6.8c0.2,0.7,0.4,1.5,0.5,2.2c0.8,3.1,1.3,5.8,2.1,7.1c1,1.7,2.5,1.8,3.4,1.8c0,0-2.6,1.5-6.3,3.6
			c-3.9,2.2-6,3.5-6,3.5c1.2-2.8,0.7-6.2-0.7-13.7c-1.4-7.5-3-14.9-4.8-22.3c-0.2-0.6-0.3-1.2-0.7-1.8c-0.3-0.6-0.8-0.7-0.9-0.7
			c4.8-2.9,9.5-5.9,14.2-9.1c0,0-0.1,0.5,0.3,1.1c0.4,0.6,0.8,1,1.3,1.4c5.8,4.8,11.8,9.4,17.8,13.9c6.1,4.5,8.9,6.4,12,6.4
			C428.9,511.8,426.1,513.9,421.8,516.9z M393.2,499.4c-1.7-1.5-2.6-2.4-2.8-2.7c0.1,0.3,0.5,1.3,1.2,3.7c1.2,4.2,2.4,8.4,3.6,12.7
			c2.7-1.6,5.3-3.3,7.9-5C399.8,505.2,396.5,502.3,393.2,499.4z"/>
	</g>
	<g>
		<path class="st0" d="M203,498.8v-3.9c3.8,0,5.7-1.4,5.8-4.2h4.1v23.5h-5v-16.4C207,498.5,205.4,498.8,203,498.8z"/>
		<path class="st0" d="M225.2,513.9c-1.4-0.5-2.6-1.4-3.4-2.4c-0.8-1.1-1.2-2.4-1.2-3.9c0-2.6,1.5-4.6,4.4-5.9v-0.1
			c-2.2-1.2-3.3-2.8-3.3-5c0-1.3,0.4-2.4,1.1-3.4c0.7-1,1.7-1.7,3-2.2c1.3-0.5,2.7-0.7,4.3-0.7c1.6,0,3,0.2,4.3,0.7
			c1.3,0.5,2.3,1.2,3,2.2c0.7,1,1.1,2.1,1.1,3.4c0,2.1-1.1,3.8-3.3,5v0.1c2.9,1.3,4.4,3.3,4.4,5.9c0,1.5-0.4,2.9-1.2,3.9
			c-0.8,1.1-2,1.9-3.4,2.4c-1.4,0.5-3,0.8-4.8,0.8C228.2,514.7,226.6,514.4,225.2,513.9z M226.9,509.8c0.8,0.7,1.8,1.1,3.2,1.1
			c1.3,0,2.4-0.4,3.2-1.1c0.8-0.7,1.2-1.6,1.2-2.7c0-1.1-0.4-2-1.2-2.7c-0.8-0.7-1.8-1-3.2-1c-1.4,0-2.4,0.3-3.2,1
			c-0.8,0.7-1.2,1.6-1.2,2.7C225.7,508.2,226.1,509.1,226.9,509.8z M227.3,499.2c0.6,0.6,1.6,0.8,2.8,0.8c1.2,0,2.1-0.3,2.8-0.8
			c0.6-0.6,1-1.3,1-2.3c0-1-0.3-1.7-1-2.3c-0.6-0.6-1.6-0.8-2.8-0.8c-1.2,0-2.1,0.3-2.8,0.8c-0.6,0.6-1,1.3-1,2.3
			C226.3,497.9,226.6,498.7,227.3,499.2z"/>
		<path class="st0" d="M249.8,506.7c0.7-2.5,1.7-4.8,2.9-6.9c1.2-2.1,2.5-3.7,3.9-4.9v-0.1h-11.6v-4.1H262v3.8
			c-2.6,2.1-4.5,4.9-5.9,8.5c-1.4,3.6-2.1,7.3-2.1,11.2h-5.3C248.7,511.7,249.1,509.3,249.8,506.7z"/>
		<path class="st0" d="M276.4,509.1h-10.8v-4.8l10.8-13.5h5V505h3.4v4.1h-3.4v5.1h-5V509.1z M276.4,505v-8.6l-6.9,8.6H276.4z"/>
	</g>
	<path class="st0" d="M467.1,29.6C463.5,28.4,377.2,0,243.5,0C109.7,0,23.5,28.4,19.8,29.6L0,36.3v451.3c0,21.3,6.4,40.7,19.1,57.6
		c10.3,13.8,24.4,25.6,43.1,36.1c30.8,17.3,68.4,27.8,101.5,37l0.2,0.1c12.9,3.6,25,6.9,35.3,10.3c0.1,0,8.7,3,15.7,7.6
		c2.4,1.6,5.5,4.1,8.6,7l19.9,18.7l19.9-18.7c3.1-2.9,6.2-5.4,8.5-7c6.5-4.3,14.8-7.3,15.7-7.6c10.4-3.4,22.5-6.8,35.3-10.3l0.2-0.1
		c33.2-9.2,70.8-19.7,101.5-37c18.7-10.5,32.8-22.3,43.1-36.1c12.7-17,19.1-36.4,19.1-57.6V36.3L467.1,29.6z M472.4,487.6
		c0,18.1-5.5,34.5-16.2,48.9c-9.1,12.1-21.7,22.7-38.6,32.2c-29.2,16.5-65.9,26.6-98.3,35.6l-0.2,0c-13,3.6-25.4,7-36.1,10.6
		c-0.1,0-10.4,3.6-19,9.2c-3.1,2.1-6.7,5-10.5,8.5l-10,9.3l-9.9-9.3c-3.8-3.5-7.4-6.5-10.5-8.5c-8.7-5.7-19-9.2-19.1-9.2
		c-10.7-3.5-23-7-36.1-10.6l-0.2,0c-32.4-9-69.1-19.2-98.3-35.6c-16.9-9.5-29.5-20-38.6-32.2c-10.8-14.4-16.2-30.8-16.2-48.9V46.7
		l9.9-3.3c3.5-1.2,87.6-28.9,219-28.9c131.4,0,215.5,27.7,219,28.9l9.9,3.3V487.6z"/>
	<g>
		<path class="st0" d="M406.2,170.8c-2.4,0-3.7,0.4-3.7,0.4s16.1-15.8,16.1-40.4c0-11.2-2.7-15.5-3.1-15.5c-0.8,0-0.9,6.7-6,11.8
			c-3.7,3.7-9.6,4.1-12.9,7.4c3.2-6.8,0.9-15.9,0.4-15.9c-0.4,0-0.2,4.8-6.3,10.9c-3.9,3.9-12.8,6.7-20.2,14
			c3.1-7.2,0.4-14.7-0.3-14.7c-0.7,0,0,4.3-4.2,8.5c-3.9,3.9-11.4,5.8-17,11.5c-7.8,7.8-6.4,19.6-6.4,23.9c0,0.4,0,0.8,0,1.2
			c-1.1,0.8-2.2,1.7-3.3,2.6c-8.8,7.7-13.5,17.9-13.5,29.4c0,22,14.2,36.8,26.8,50c5.6,5.8,10.8,11.3,14.6,17
			c3.9,5.9,5.7,11.3,5.7,16.9c0,5.4-1.8,10.7-5,14.4c-3.6,4.2-8.5,6.3-14.8,6.3c-10.8,0-18.7-4-27.1-8.3c-4.3-2.2-8.6-4.5-13.2-6.3
			c-2.4-23.7-19.5-38.1-19.5-60.3c0-12.1,5.4-18.8,3.4-27.3c3.9,3.9,10.6,5.2,12.8,5.2c1.9,0,3.1-0.7,3.8-1.2c0.1-0.1,0.1-0.3,0-0.4
			c-1.1-0.8-5.4-4.3-5.4-10.7c0-7.3,2.7-12.9,2.7-20.2c0-7.3-4-11.6-4.8-12.4c3.3,3.3,9.1,5.3,12,5.3c2.5,0,3.9-0.4,4.7-1
			c0.1-0.1,0.1-0.3,0-0.4c-1.4-0.9-7-4.7-7-10.5c0-6.7,1.9-7.9,1.9-12.6c0-4.7-2.2-8.1-2.2-8.1s3.1,1.9,6.8,1.9c4.1,0,6.5-1,8-2.3
			c0.2-0.2,0.1-0.4-0.2-0.5c-10.4-0.8-9-24.5-18.8-33.2c0,0,1,0.2,2.6,0.2c3.4,0,7.5-2.9,9-5.6c0.1-0.2,0-0.4-0.2-0.4
			c-18.8-1-24.8-42.6-67.2-34.2c2.2-3.1,6.3-5.7,7.7-6.6c0.2-0.1,0.2-0.4,0-0.5c-1.9-0.7-6-2.3-15.4-2.3c-9.7,0-18.6,5.2-23.7,11.8
			c2.3-4.6-0.5-10.4-3.1-13.3c-0.1-0.2-0.4-0.1-0.5,0.1c-0.3,1.2-1.3,3.7-2.9,5.3c-7.6,7.6-21.3,12.5-21.3,28.4c0,0-4.5,2.9-10.5,7
			c-6.1,4.1-9.3,10.6-9.3,12.7c-2.3,1.2-11.9,8.3-19.6,16c-0.2,0.2-0.2,0.5-0.1,0.7c0.8,1.3,1.4,2.9,1.7,3.8
			c0.1,0.4,0.6,0.5,0.9,0.2c1-1,3.1-2.8,4.1-3.1c-1.7,1.7-2.3,3.8-2.3,6.4c0,5.8,12.8,13.9,13.6,13.1c0.6-0.6-1.5-6.5,0.4-8.4
			c2.9-2.9,13.1-3.2,16.2-3.2s4.8,1.2,4.8,3.4c0,5.4-3.1,15.5-12.9,15.5c-4,0-6.5-3.8-7.2-3.2c-0.6,0.6-0.1,6.3,1.2,8.2
			c0,0-1.1,1.3-1.1,4c0,7,11.6,16,12.8,14.8c0.8-0.8-2.4-8.7-0.4-8.7c1.1,0,4.2,4.5,7.8,4.5c0.2,0,0.2-0.1,0.3-0.1
			c0.6-0.6-2.3-4.6-0.7-6.1c3.9-3.9,14.1-11.6,16.7-12.4c5.4-1.7,8.2,2.2,8.2,7.5c0,11.8-12.5,14.2-22.7,24.3
			c-10.2,10.2-12.2,24.7-25,24.7c-1.7,0,9.5-3.1,12.7-14.2c-33.5,0.3-39.2-18.4-66-22c-0.1-0.4-0.3-0.8-0.6-1.2
			c-0.7-0.7-10.1-9-10.1-27.5c0-3.7-2.5-6.6-6.4-6.6h0c-1.2-2.6-4.4-7.9-11.1-7.9c-6.4,0-8,3-7.6,3.3c0.4,0.4,3.1-0.6,6.4,2.7
			c1.9,1.9,2.7,4.1,3,5.6c-0.8,1-1.3,2.1-1.3,3.4c0,0-3.3-0.6-6.5,2.4c-1.4-0.8-3.7-1.7-7.2-1.7c-9.2,0-11.1,8.3-10.7,8.7
			c0.4,0.4,2-1.5,4.8-1.5c3.2,0,6.6,2.6,8.4,4.1c-0.2,2.1,0.2,4.1,1.6,5.5c0,0-4.4,1.3-5.2,7.5c-0.2,0-0.4,0.1-0.6,0.2
			c-12.2,3.4-9.9,12.9-9.4,12.9c0.5,0,1.1-4.1,6.7-4.1c1.9,0,3.5,0.2,4.7,0.5c2.2,4.2,6.1,5.2,8.9,5.2c2.5,0,4.9-0.6,7-0.6
			c2.8,0,4.5,1.7,4.5,5.6c0,5.7-5.5,4-8,6.5c-1.7,1.7-1.9,3.2-1.9,5.5c0,0.1,0,0.2,0,0.3c-0.8,0.2-1.6,0.4-2.4,0.4
			c-3.8,0-6-3.4-6.5-2.9c-0.7,0.7,1.6,11.6,9.3,11.6c2.7,0,4.6-0.7,5.8-1.7c0.6,0.1,1.3,0.2,2.1,0.2c7.8,0,9.6-9.4,19.3-9.4
			c9.6,0,28.3,13.4,31,30.1c0,0.2,0.3,0.3,0.4,0.2c4.2-3.5,4-8.7,4-8.7c7.9,6.4,11.2,9.4,17.8,15.9c0,0-38.5,29.6-40.5,30.8
			c-1.7,1-2.6,1.5-4.7,1.5c-5.4,0-7.1-9.1-15.8-9.1c-1.7,0-2.9,0.5-3.9,1.3c-0.9-0.2-2-0.3-3.4-0.3c-10.2,0-12,13.7-11.1,13.7
			c1,0,1.7-3.5,6.5-3.5c0.6,0,1.3,0.1,1.9,0.2c0,2.6,1,5.1,2.7,6.4c0,0-2.8,1-4.4,4.3c-12.1,0.4-11.9,14.7-10.7,14.7
			c0.8,0,1.3-6,8.3-6c0.5,0,1.2,0.2,1.8,0.5c1.2,5.3,4.9,8.2,9.2,8.2c-1.1,2-0.9,5.2,0.3,8c-2.8,5.9,2.2,13.9,3.5,13.9
			c1,0-0.2-5.2,2-8.5c0.5,0.1,1,0.2,1.5,0.2c6.3,0,9-5.3,9-5.3s0.4,5.6,6,6.2c1.2,5,4.4,9.2,5.4,9.2c0.7,0-0.7-6.8,1.4-11.1
			c8-8,1.7-18.3,10-26.5c9.5-9.5,32.9-18,52.2-18.8c7,7.8,16.6,19.7,21,22.7c0,0-0.2,0.2-0.5,0.5c-11.9,11.9-33.9,1.5-45.5,13.1
			c-4.6,4.6-5.2,8.8-11.7,8.8c-2.2,0-4.3-1.1-5.2-2c-0.1-0.1-0.4-0.1-0.4,0.1c-0.4,1.4-0.7,6,2.8,9.5c4,4,9,3.3,10.3,2.6
			c-3.2,4.3-10.2,4.1-14.3,1.7c-0.2-0.1-0.5,0.1-0.4,0.3c3.2,12.4,16,10,16,10c2.7,13.3,15.8,18.8,15.8,27.7c0,2.5-1,5.3-3.1,7.4
			c-5,5-16,8.3-28,8.3c-19.3,0-19.6-13.7-30.1-13.7c-1.4,0-2.7,0.2-4,0.5c-1.5-1.7-4.8-3.7-9-3.7c-6.4,0-10.2,7.3-9.3,8.2
			c0.5,0.5,2.4-1.8,5.3-1.8c1.4,0,3.2,1.2,3.9,3.2c-0.5,0.6-1,1.3-1.4,2.1c-1.1-0.3-2.4-0.5-4.1-0.5c-12.1,0-11.9,14-10.6,14
			c0.7,0,2.3-5.2,8.2-4.5c-1.2,2.2-1.8,4.6-1.8,7.3c0,0.4,0,0.8,0,1.2c-2.8,1.6-4.9,4.6-4.9,8.1c0,5.1,1,7.6,1.7,7.6
			c0.9,0,1.7-5.9,6.1-7.8c2,2.7,4.9,4.8,8.3,5.7c-0.4,1.7-0.8,4.4-0.8,8.2c0,4.7,1.5,11,2.4,11c0.9,0,1.5-7.3,4.6-10.1
			c1.3,1.3,2.9,2.3,4.7,3.1c1.7,0.8,3.7,1.2,6,1.2c0.1,0,0.3,0,0.4,0c16.2-0.3,26.5-15.1,38.6-15.1c6.8,0,6.9,6.4,4.4,9.1
			c18.4,0,23.6-14,34.8-14c5.7,0,10.8,3,16,3c3.4,0,7.6-1.1,10-6c0.1-0.2,0-0.4-0.2-0.4c-8.6,0.1-12.2-4-12.9-6.5
			c15.4,6.2,19.9-3.4,20.8-5.9c0.1-0.2-0.1-0.4-0.4-0.3c-0.6,0.3-1.7,0.6-2.9,0.6c-8.3,0-17.2-8.4-17.2-20c0-11,7.6-17.2,14.9-19.2
			c5.7-16.2,13.8-19.5,10.7-29.6c0,0,0-0.1,0-0.1c0,0,0,0,0,0c0.9,1.1,2.5,5.5,2.5,7.9c0,10.7-10.3,16.8-10.3,33.8
			c0,19.1,14.9,18.4,14.9,31.2c0,5.1-1.9,8-2.7,9c-0.1,0.2,0,0.4,0.2,0.4c1.8,0.3,8.8,0.5,15.5-10.6c8.9,4.6,6.5,12.3,5.8,14.1
			c-0.1,0.2,0.1,0.4,0.3,0.4c11.6-0.4,15.3-16.1,15.3-16.1c10.2-1.1,18.3,2.4,18.3,6.7c0,11.1-20.7,31.8-35.8,31.8
			c-5.6,0-7.6-5.9-12.5-5.9c-3.6,0-5.3,1.7-6.4,3.9c-2-0.9-4-1.3-5.9-1.3c-4.8,0-9,2.7-10.5,8.6c-6.5,2.1-7.8,12.2-7.2,12.9
			c0.5,0.5,3.7-4.8,9-3.6c0.9,1.5,2,2.7,2.9,3.6c-1.1,0.6-2.2,1.3-3.5,2.6c-6.4,6.4-4.8,13.5-4.2,14.1c0.7,0.7,1.8-2.5,3.6-4.3
			c1.4-1.4,3.4-2.9,6.1-2.7c2.2,4.1,6.9,5.2,9.9,5.2c-0.4,3.7-0.3,10,0.6,10.9c0.7,0.7,3.6-5.3,8-8.5c2.3,1.4,5.2,2.8,8.2,2.8
			c8.4,0,16-4,22.1-10c8.9-8.9,15-23.1,22.5-23.1c4.7,0,3.8,4.3,3.7,4.8c12.1,0,7-14.8,30.1-37.9c2.8-2.8,6.1-5.3,6.5-8.1
			c0-0.2-0.2-0.4-0.4-0.3c-2,1.3-7.2,1.7-9.5-0.6c0,0,18.7-9.3,19.2-23.2c0-0.2-0.3-0.4-0.4-0.2c-5,4-14.4,3.1-14.4,3.1
			c4.4-3.5,7.6-13.5,3.1-22.9c-0.1-0.2-0.4-0.2-0.5,0c-4.3,10.3-13.2,13.8-21.2,13.8c-11.5,0-21.3-9.3-21.3-21.9
			c0-10.8,3.5-15.7,4.9-25.4c2.5,1.1,5,2.3,7.7,3.7c9,4.6,19.2,9.8,33.2,9.8c5.2,0,10-1,14.4-3c4.1-1.9,7.6-4.6,10.6-8
			c5.3-6.2,8.2-14.4,8.2-23c0-18-12.2-30.7-24.1-43.1c-5.9-6.1-11.9-12.4-16.3-19.2c-4.7-7.3-6.8-14.1-6.8-21.5
			c0-7.5,4.2-15.4,9.9-20.5c0,0,12.7,7.1,27.4,7.1c14.6,0,23.4-10.7,23.4-10.7c6.7-6.7,13.9-5.7,14.7-6.4
			C415.3,174.6,411.5,170.8,406.2,170.8 M197.7,107.3c-2.4,2.4-2.1,5.4-4.2,7.5c-0.9,0.9-2.1,1.5-3.7,1.5c-3.1,0-5.2-2.6-5.2-5.2
			c0-2.7,3.1-5.1,11.5-5.1c1,0,2.2,0,3.3,0.1C198.9,106.4,198.3,106.7,197.7,107.3"/>
	</g>
</g>
</svg>
